# xmcd CD database file
#
# Track frame offsets:
#	150
#	13801
#	27155
#	37192
#	51846
#	68552
#	81719
#	92916
#	103858
#	120402
#	145253
#	156184
#	175413
#	193039
#	207244
#
# Disc length: 2931 seconds
#
# Revision: 0
# Processed by: cddbd v1.5.2PL0 Copyright (c) Steve Scherf et al.
# Submitted via: CDex 1.51
#
DISCID=d80b710f
DTITLE=Second Wind Jazz Ensemble - Live, Jan 13, 2007
DYEAR=2007
DGENRE=Jazz
TTITLE0=The Preacher
TTITLE1=It's Only a Paper Moon
TTITLE2=Our Love is Here to Stay
TTITLE3=Norwegian Wood
TTITLE4=In the Mood
TTITLE5=Tuxedo Junction
TTITLE6=The Chicken Dance (adlib)
TTITLE7=Straighten Up and Fly Right
TTITLE8=Moonlight Serenade
TTITLE9=Sentimental Journey
TTITLE10=Almost Like Being in Love
TTITLE11=One O' Clock Jump
TTITLE12=Moten Swing
TTITLE13=Mack the Knife
TTITLE14=Love Potion no. 9
EXTD=YEAR: 2007
EXTT0=
EXTT1=
EXTT2=
EXTT3=
EXTT4=
EXTT5=
EXTT6=
EXTT7=
EXTT8=
EXTT9=
EXTT10=
EXTT11=
EXTT12=
EXTT13=
EXTT14=
PLAYORDER=
